<svg viewBox="0 0 100 100" xmlns="http://www.w3.org/2000/svg">
  <defs>
    <filter id="glow-red" x="-50%" y="-50%" width="200%" height="200%">
      <feGaussianBlur stdDeviation="2.5" result="blur" />
      <feComposite in="SourceGraphic" in2="blur" operator="over" />
    </filter>
  </defs>

  <path fill="#f0f0f0" d="
    M 22,15 
    L 65,15 
    C 92,15 98,35 98,50 
    C 98,65 92,85 58,85 
    L 15,85 
    L 23,70 
    L 58,70 
    C 78,70 82,60 82,50 
    C 82,40 78,30 65,30 
    L 30,30 
    Z" />

  <g transform="translate(82, 22)">
    <g stroke="#ff2d2d" stroke-width="7" stroke-linecap="round">
      <line x1="0" y1="-18" x2="0" y2="-11" />
      <line x1="0" y1="11" x2="0" y2="18" />
      <line x1="-18" y1="0" x2="-11" y2="0" />
      <line x1="11" y1="0" x2="18" y2="0" />
    </g>
    <circle cx="0" cy="0" r="10" fill="#ff2d2d" filter="url(#glow-red)" />
    <circle cx="0" cy="0" r="4" fill="white" />
  </g>
</svg>
