<?xml version="1.0" encoding="UTF-8"?>
<svg xmlns="http://www.w3.org/2000/svg" xmlns:xlink="http://www.w3.org/1999/xlink" width="350px" height="100px" viewBox="0 0 350 100" version="1.1">
<g id="surface1">
<path style="fill:none;stroke-width:83.330002;stroke-linecap:butt;stroke-linejoin:miter;stroke:rgb(0%,0%,0%);stroke-opacity:1;stroke-miterlimit:2.613;" d="M 2902.853601 1897.91454 L 3212.48867 1897.91454 L 3055.718013 1592.185716 L 2825.509937 2052.732074 L 3444.780077 2052.732074 L 3057.671136 1278.6444 L 2593.218531 2207.549609 Z M 2593.218531 2207.549609 L 3677.071483 2207.549609 L 3057.671136 969.009331 L 2438.400996 2207.549609 Z M 2593.218531 2207.549609 " transform="matrix(0.03,0,0,0.03,0.000231877,0)"/>
<path style=" stroke:none;fill-rule:nonzero;fill:rgb(0%,0%,0%);fill-opacity:1;" d="M 57.433594 66.070312 C 55.894531 66.070312 54.570312 65.699219 53.453125 64.953125 C 52.339844 64.199219 51.378906 63.023438 50.574219 61.417969 L 45.460938 51.257812 C 45.15625 50.660156 44.933594 50.023438 44.785156 49.339844 C 44.636719 48.640625 44.570312 47.898438 44.570312 47.09375 C 44.570312 46.261719 44.636719 45.476562 44.785156 44.742188 C 44.933594 44.019531 45.15625 43.371094 45.460938 42.792969 L 50.574219 32.636719 C 51.339844 31.046875 52.289062 29.875 53.414062 29.117188 C 54.542969 28.363281 55.882812 27.984375 57.433594 27.984375 L 66.148438 27.984375 C 66.972656 27.984375 67.640625 28.21875 68.148438 28.679688 C 68.65625 29.136719 68.914062 29.726562 68.914062 30.449219 C 68.914062 31.167969 68.65625 31.753906 68.140625 32.214844 C 67.621094 32.683594 66.953125 32.917969 66.148438 32.917969 L 57.433594 32.917969 C 56.953125 32.917969 56.5 33.058594 56.078125 33.320312 C 55.660156 33.585938 55.324219 33.957031 55.082031 34.4375 L 50.027344 44.683594 C 49.878906 45.027344 49.761719 45.398438 49.683594 45.78125 C 49.605469 46.164062 49.566406 46.574219 49.566406 47.015625 C 49.566406 47.476562 49.605469 47.898438 49.683594 48.28125 C 49.761719 48.660156 49.878906 49.023438 50.027344 49.367188 L 55.082031 59.554688 C 55.324219 60.035156 55.660156 60.417969 56.078125 60.699219 C 56.5 60.984375 56.953125 61.132812 57.433594 61.132812 L 66.148438 61.132812 C 66.972656 61.132812 67.640625 61.359375 68.148438 61.816406 C 68.65625 62.277344 68.914062 62.875 68.914062 63.601562 C 68.914062 64.324219 68.65625 64.921875 68.140625 65.382812 C 67.621094 65.84375 66.953125 66.070312 66.148438 66.070312 Z M 121.851562 33.523438 L 121.851562 47.21875 L 133.792969 47.21875 C 134.46875 47.21875 135.046875 46.964844 135.527344 46.464844 C 136.015625 45.964844 136.261719 45.394531 136.261719 44.75 L 136.261719 35.992188 C 136.261719 35.34375 136.015625 34.769531 135.527344 34.269531 C 135.046875 33.769531 134.46875 33.523438 133.792969 33.523438 Z M 116.914062 28.585938 L 133.792969 28.585938 C 135.820312 28.585938 137.574219 29.3125 139.042969 30.769531 C 140.523438 32.230469 141.257812 33.964844 141.257812 35.992188 L 141.257812 44.75 C 141.257812 46.796875 140.53125 48.550781 139.070312 50.011719 C 137.613281 51.46875 135.859375 52.203125 133.792969 52.203125 L 121.851562 52.203125 L 121.851562 63.921875 C 121.851562 64.742188 121.625 65.410156 121.164062 65.910156 C 120.703125 66.417969 120.117188 66.671875 119.382812 66.671875 C 118.65625 66.671875 118.070312 66.417969 117.609375 65.898438 C 117.148438 65.378906 116.914062 64.722656 116.914062 63.921875 Z M 116.914062 28.585938 "/>
<path style="fill:none;stroke-width:83.330002;stroke-linecap:butt;stroke-linejoin:miter;stroke:rgb(0%,0%,0%);stroke-opacity:1;stroke-miterlimit:2.613;" d="M 4603.112112 2400.518143 L 1264.443979 2397.653563 " transform="matrix(0.03,0,0,0.03,0.000231877,0)"/>
<path style=" stroke:none;fill-rule:evenodd;fill:rgb(38.039216%,92.54902%,43.921569%);fill-opacity:1;" d="M 147.71875 61.027344 C 150.753906 61.027344 153.214844 63.488281 153.214844 66.523438 C 153.214844 69.558594 150.753906 72.019531 147.71875 72.019531 C 144.683594 72.019531 142.222656 69.558594 142.222656 66.523438 C 142.222656 63.488281 144.683594 61.027344 147.71875 61.027344 Z M 147.71875 61.027344 "/>
<path style=" stroke:none;fill-rule:evenodd;fill:rgb(0%,0%,0%);fill-opacity:1;" d="M 147.941406 32.105469 L 312.070312 32.105469 L 312.070312 71.144531 L 158.230469 71.144531 C 158.863281 69.734375 159.214844 68.171875 159.214844 66.527344 C 159.214844 60.300781 154.167969 55.253906 147.941406 55.253906 Z M 163.285156 66.359375 L 163.285156 42.371094 L 154.207031 42.371094 L 154.207031 36.890625 L 179.609375 36.890625 L 179.609375 42.371094 L 170.53125 42.371094 L 170.53125 66.359375 Z M 182.5625 66.359375 L 182.5625 36.890625 L 200.929688 36.890625 L 200.929688 42.328125 L 189.433594 42.328125 L 189.433594 48.328125 L 200.414062 48.328125 L 200.414062 53.808594 L 189.433594 53.808594 L 189.433594 60.835938 L 201.257812 60.835938 L 201.257812 66.359375 Z M 205.832031 66.359375 L 205.832031 36.890625 L 212.714844 36.890625 L 212.714844 50.019531 L 222.035156 36.890625 L 229.742188 36.890625 L 220.011719 50.523438 L 232.152344 66.359375 L 223.226562 66.359375 L 212.714844 52.519531 L 212.714844 66.359375 Z M 240.367188 47.847656 L 240.367188 66.359375 L 233.578125 66.359375 L 233.578125 36.890625 L 239.605469 36.890625 L 254.3125 54.460938 L 254.3125 36.890625 L 261.105469 36.890625 L 261.105469 66.359375 L 255.726562 66.359375 Z M 266.675781 66.359375 L 266.675781 36.890625 L 273.753906 36.890625 L 273.753906 66.359375 Z M 279.484375 66.359375 L 279.484375 36.890625 L 286.367188 36.890625 L 286.367188 50.019531 L 295.6875 36.890625 L 303.394531 36.890625 L 293.667969 50.523438 L 305.804688 66.359375 L 296.878906 66.359375 L 286.367188 52.519531 L 286.367188 66.359375 Z M 279.484375 66.359375 "/>
</g>
</svg>
